<?xml version="1.0" encoding="UTF-8" standalone="no"?><!-- Generator: Gravit.io --><svg xmlns="http://www.w3.org/2000/svg" xmlns:xlink="http://www.w3.org/1999/xlink" style="isolation:isolate" viewBox="0 0 64 64" width="64pt" height="64pt"><defs><clipPath id="_clipPath_X34XZnkNwN22WAn3yJsKr2S5y89szneK"><rect width="64" height="64"/></clipPath></defs><g clip-path="url(#_clipPath_X34XZnkNwN22WAn3yJsKr2S5y89szneK)"><linearGradient id="_lgradient_0" x1="0.11871030151421752" y1="0.8418384071219681" x2="0.8500463624604337" y2="0.26828770910544675" gradientTransform="matrix(0,-64,55.426,0,4.287,64)" gradientUnits="userSpaceOnUse"><stop offset="0%" stop-opacity="1" style="stop-color:rgb(255,0,0)"/><stop offset="100%" stop-opacity="1" style="stop-color:rgb(183,0,255)"/></linearGradient><polygon points="32,0,59.713,16,59.713,48,32,64,4.287,48,4.287,16" fill="url(#_lgradient_0)"/><path d=" M 22.514 29 L 8.617 29 L 8.617 18.5 L 20.309 11.75 L 32 5 L 32 5 L 43.691 11.75 L 55.383 18.5 L 55.383 29 L 55.383 29 L 41.623 29 L 41.794 28.594 C 42.375 27.227 41.657 25.5 40.5 25.5 L 33.288 25.5 L 35.951 14.345 C 36.2 13.039 35.482 11.75 34.501 11.75 L 25.501 11.75 C 24.751 11.75 24.113 12.515 24.013 13.538 L 22.514 29 Z  M 22.057 35 L 8.617 35 L 8.617 45.5 L 20.309 52.25 L 32 59 L 43.691 52.25 L 55.383 45.5 L 55.383 35 L 55.383 35 L 39.097 35 L 30.794 54.719 C 30.519 55.372 30.019 55.75 29.494 55.75 C 28.538 55.75 27.813 54.521 28.038 53.215 L 30.919 36.5 L 23.501 36.5 C 22.807 36.5 22.235 35.856 22.057 35 Z  M 59.713 29 L 59.713 16 L 45.856 8 L 32 0 L 32 0 L 18.144 8 L 4.287 16 L 4.287 29 L 4.287 35 L 4.287 35 L 4.287 48 L 18.144 56 L 32 64 L 45.856 56 L 59.713 48 L 59.713 35 L 59.713 29 L 59.713 29 Z " fill-rule="evenodd" fill="rgb(235,235,235)"/></g></svg>