<?xml version="1.0" encoding="UTF-8" standalone="no"?><!-- Generator: Gravit.io --><svg xmlns="http://www.w3.org/2000/svg" xmlns:xlink="http://www.w3.org/1999/xlink" style="isolation:isolate" viewBox="0 0 64 64" width="64pt" height="64pt"><defs><clipPath id="_clipPath_NkJvx2RZ3KEddmlI5RL35mgCbx5iwyuO"><rect width="64" height="64"/></clipPath></defs><g clip-path="url(#_clipPath_NkJvx2RZ3KEddmlI5RL35mgCbx5iwyuO)"><path d=" M 36.387 7.877 C 33.966 3.908 30.034 3.908 27.613 7.877 L 1.03 51.343 C -1.364 55.328 0.462 58.804 5.107 59.1 L 58.893 59.1 C 63.538 58.804 65.364 55.328 62.97 51.343 L 36.387 7.877 Z  M 40.832 43.414 L 37 36.9 L 32 28.4 L 32 28.4 L 27 36.9 L 23.168 43.414 C 23.525 44.016 23.779 44.686 23.906 45.4 L 32 45.4 L 40.094 45.4 C 40.221 44.686 40.475 44.016 40.832 43.414 L 40.832 43.414 L 40.832 43.414 Z  M 43.086 41.216 L 39.5 35 L 32 22 L 32 22 L 24.5 35 L 20.914 41.216 C 20.051 40.736 19.057 40.462 18 40.462 C 14.689 40.462 12 43.15 12 46.462 L 12 46.462 C 12 49.773 14.689 52.462 18 52.462 C 20.78 52.462 23.121 50.567 23.801 48 L 32 48 L 40.199 48 L 40.199 48 C 40.879 50.567 43.22 52.462 46 52.462 C 49.311 52.462 52 49.773 52 46.462 C 52 43.15 49.311 40.462 46 40.462 C 44.943 40.462 43.949 40.736 43.086 41.216 L 43.086 41.216 L 43.086 41.216 Z " fill-rule="evenodd" fill="rgb(0,0,0)"/><circle vector-effect="non-scaling-stroke" cx="31.976979103393973" cy="31" r="9.999999999999998" fill="rgb(107,102,255)"/></g></svg>