<?xml version="1.0" encoding="UTF-8" standalone="no"?><!-- Generator: Gravit.io --><svg xmlns="http://www.w3.org/2000/svg" xmlns:xlink="http://www.w3.org/1999/xlink" style="isolation:isolate" viewBox="0 0 252 252" width="252pt" height="252pt"><defs><clipPath id="_clipPath_HFDBJyYWTY8ATzWbHVYUbWLYcs298uJO"><rect width="252" height="252"/></clipPath></defs><g clip-path="url(#_clipPath_HFDBJyYWTY8ATzWbHVYUbWLYcs298uJO)"><path d=" M 141 103.167 L 141 103.167 L 151 103.167 L 151 103.167 L 151 96.167 L 141 96.167 L 141 79.5 L 105.583 79.5 C 102.146 79.5 99.333 76.687 99.333 73.25 L 99.333 73.25 L 99.333 37.833 L 47.25 37.833 C 43.786 37.833 41 40.62 41 44.083 L 41 96.167 L 41 96.167 L 41 96.167 L 41 103.167 L 41 164.917 C 41 168.38 43.786 171.167 47.25 171.167 L 116 171.167 L 116 171.167 L 116 171.167 L 116 189.163 C 116 191.597 118.926 193.028 120.731 191.172 L 134.272 177.244 L 142.562 197.421 C 143.169 198.85 144.775 199.564 146.207 198.939 L 153.889 195.591 C 155.278 194.966 155.973 193.315 155.365 191.841 L 146.641 170.593 L 163.217 170.593 L 163.217 170.593 C 165.64 170.593 166.963 167.473 165.17 165.727 L 141 140.866 L 141 103.167 Z  M 28.25 96.167 L 31 96.167 L 31 103.167 L 30.761 103.167 C 25.401 103.167 20.808 106.479 18.919 111.167 L 11.146 111.167 L 11.146 111.167 L 11.146 111.167 C 12.25 102.708 19.492 96.167 28.25 96.167 L 28.25 96.167 L 28.25 96.167 L 28.25 96.167 Z  M 161 96.167 L 171 96.167 L 171 103.167 L 161 103.167 L 161 96.167 L 161 96.167 L 161 96.167 L 161 96.167 Z  M 181 96.167 L 191 96.167 L 191 103.167 L 181 103.167 L 181 96.167 L 181 96.167 L 181 96.167 L 181 96.167 Z  M 201 96.167 L 211 96.167 L 211 103.167 L 201 103.167 L 201 96.167 L 201 96.167 L 201 96.167 L 201 96.167 Z  M 221 96.167 L 223.75 96.167 C 232.508 96.167 239.75 102.708 240.854 111.167 L 240.854 111.167 L 240.854 111.167 L 234.081 111.167 C 232.192 106.479 227.599 103.167 222.239 103.167 L 221 103.167 L 221 96.167 L 221 96.167 L 221 96.167 L 221 96.167 Z  M 241 121.167 L 241 131.167 L 235 131.167 L 235 131.167 L 235 121.167 L 241 121.167 L 241 121.167 L 241 121.167 L 241 121.167 Z  M 241 141.167 L 241 150.167 L 235 150.167 L 235 141.167 L 235 141.167 L 241 141.167 L 241 141.167 L 241 141.167 L 241 141.167 Z  M 11 150.167 L 11 141.167 L 18 141.167 L 18 150.167 L 11 150.167 L 11 150.167 L 11 150.167 L 11 150.167 Z  M 11 131.167 L 11 121.167 L 18 121.167 L 18 131.167 L 11 131.167 L 11 131.167 L 11 131.167 L 11 131.167 Z  M 223.75 214.167 L 221 214.167 L 221 207.167 L 221.239 207.167 C 226.599 207.167 231.192 203.854 233.081 199.167 L 240.854 199.167 L 240.854 199.167 L 240.854 199.167 C 239.75 207.626 232.508 214.167 223.75 214.167 L 223.75 214.167 L 223.75 214.167 L 223.75 214.167 Z  M 191 214.167 L 181 214.167 L 181 207.167 L 181 207.167 L 191 207.167 L 191 214.167 L 191 214.167 L 191 214.167 L 191 214.167 Z  M 171 214.167 L 161 214.167 L 161 207.167 L 161 207.167 L 171 207.167 L 171 214.167 L 171 214.167 L 171 214.167 L 171 214.167 Z  M 151 214.167 L 141 214.167 L 141 207.167 L 151 207.167 L 151 214.167 L 151 214.167 L 151 214.167 L 151 214.167 Z  M 131 214.167 L 121 214.167 L 121 207.167 L 121 207.167 L 131 207.167 L 131 214.167 L 131 214.167 L 131 214.167 L 131 214.167 Z  M 111 214.167 L 101 214.167 L 101 207.167 L 101 207.167 L 111 207.167 L 111 214.167 L 111 214.167 L 111 214.167 L 111 214.167 Z  M 91 214.167 L 81 214.167 L 81 207.167 L 91 207.167 L 91 214.167 L 91 214.167 L 91 214.167 L 91 214.167 Z  M 71 214.167 L 61 214.167 L 61 207.167 L 71 207.167 L 71 214.167 L 71 214.167 L 71 214.167 L 71 214.167 Z  M 51 214.167 L 41 214.167 L 41 207.167 L 51 207.167 L 51 214.167 L 51 214.167 L 51 214.167 L 51 214.167 Z  M 31 214.167 L 28.25 214.167 C 19.492 214.167 12.25 207.626 11.146 199.167 L 11.146 199.167 L 11.146 199.167 L 17.919 199.167 C 19.808 203.854 24.401 207.167 29.761 207.167 L 31 207.167 L 31 214.167 L 31 214.167 L 31 214.167 L 31 214.167 Z  M 11 189.167 L 11 179.167 L 17 179.167 L 17 179.167 L 17 189.167 L 11 189.167 L 11 189.167 L 11 189.167 L 11 189.167 Z  M 11 169.167 L 11 160.167 L 17 160.167 L 17 169.167 L 17 169.167 L 11 169.167 L 11 169.167 L 11 169.167 L 11 169.167 Z  M 241 160.167 L 241 169.167 L 234 169.167 L 234 160.167 L 241 160.167 L 241 160.167 L 241 160.167 L 241 160.167 Z  M 241 179.167 L 241 189.167 L 234 189.167 L 234 179.167 L 241 179.167 L 241 179.167 L 241 179.167 L 241 179.167 Z  M 211 214.167 L 201 214.167 L 201 207.167 L 211 207.167 L 211 214.167 L 211 214.167 L 211 214.167 Z  M 141 69.578 L 141 71.167 L 107.667 71.167 L 107.667 37.833 L 109.255 37.833 C 110.922 37.833 112.51 38.484 113.682 39.656 L 139.177 65.177 C 140.349 66.349 141 67.937 141 69.578 L 141 69.578 L 141 69.578 L 141 69.578 Z  M 116 171.167 L 134.75 171.167 C 138.214 171.167 141 168.38 141 164.917 L 141 140.866 L 141 140.866 L 120.731 120.017 C 119.113 118.214 116 119.463 116 122.026 L 116 171.167 L 116 171.167 L 116 171.167 L 116 171.167 Z  M 93.679 134.56 L 77.607 134.56 L 77.607 118.488 C 77.607 116.516 76.008 114.917 74.036 114.917 L 70.464 114.917 C 68.492 114.917 66.893 116.516 66.893 118.488 L 66.893 134.56 L 50.821 134.56 C 48.849 134.56 47.25 136.159 47.25 138.131 L 47.25 141.702 C 47.25 143.674 48.849 145.274 50.821 145.274 L 66.893 145.274 L 66.893 161.345 C 66.893 163.317 68.492 164.917 70.464 164.917 L 74.036 164.917 C 76.008 164.917 77.607 163.317 77.607 161.345 L 77.607 145.274 L 93.679 145.274 C 95.651 145.274 97.25 143.674 97.25 141.702 L 97.25 138.131 C 97.25 136.159 95.651 134.56 93.679 134.56 L 93.679 134.56 L 93.679 134.56 L 93.679 134.56 Z " fill-rule="evenodd" fill="${Background}"/></g></svg>