<?xml version="1.0" encoding="UTF-8" standalone="no"?><!-- Generator: Gravit.io --><svg xmlns="http://www.w3.org/2000/svg" xmlns:xlink="http://www.w3.org/1999/xlink" style="isolation:isolate" viewBox="0 0 64 64" width="64pt" height="64pt"><defs><clipPath id="_clipPath_s6Qqg0aUMJ7AI15wQGs4X21ifYURMq7M"><rect width="64" height="64"/></clipPath></defs><g clip-path="url(#_clipPath_s6Qqg0aUMJ7AI15wQGs4X21ifYURMq7M)"><clipPath id="_clipPath_DsUinmg4qQ8wilLS0rn5ks8qrsoC1AMT"><rect x="0" y="0" width="64" height="64" transform="matrix(1,0,0,1,0,0)" fill="rgb(255,255,255)"/></clipPath><g clip-path="url(#_clipPath_DsUinmg4qQ8wilLS0rn5ks8qrsoC1AMT)"><g><linearGradient id="_lgradient_1" x1="0" y1="0.5" x2="1" y2="0.5" gradientTransform="matrix(64,0,0,64,0,0)" gradientUnits="userSpaceOnUse"><stop offset="0.8333333333333334%" stop-opacity="1" style="stop-color:rgb(215,172,0)"/><stop offset="97.91666666666666%" stop-opacity="1" style="stop-color:rgb(255,234,0)"/></linearGradient><path d=" M 8 0 L 3 0 C 1.344 0 0 1.344 0 3 L 0 61 C 0 62.656 1.344 64 3 64 L 61 64 C 62.656 64 64 62.656 64 61 L 64 3 C 64 1.344 62.656 0 61 0 L 13 0 L 13 39 L 9.616 36 L 8 39 L 8 0 L 8 0 Z " fill="url(#_lgradient_1)"/><linearGradient id="_lgradient_2" x1="0" y1="0.5" x2="1" y2="0.5" gradientTransform="matrix(36.924,0,0,14.678,8,45)" gradientUnits="userSpaceOnUse"><stop offset="0.8333333333333334%" stop-opacity="1" style="stop-color:rgb(100,73,0)"/><stop offset="100%" stop-opacity="1" style="stop-color:rgb(0,0,0)"/></linearGradient><path d=" M 11.027 47.686 L 11.027 51.924 L 12.023 51.924 L 12.023 51.924 Q 13.42 51.924 14.113 51.372 L 14.113 51.372 L 14.113 51.372 Q 14.807 50.82 14.807 49.766 L 14.807 49.766 L 14.807 49.766 Q 14.807 48.701 14.226 48.193 L 14.226 48.193 L 14.226 48.193 Q 13.645 47.686 12.404 47.686 L 12.404 47.686 L 11.027 47.686 L 11.027 47.686 Z  M 17.863 49.658 L 17.863 49.658 L 17.863 49.658 Q 17.863 51.963 16.423 53.184 L 16.423 53.184 L 16.423 53.184 Q 14.982 54.404 12.326 54.404 L 12.326 54.404 L 11.027 54.404 L 11.027 59.482 L 8 59.482 L 8 45.205 L 12.561 45.205 L 12.561 45.205 Q 15.158 45.205 16.511 46.323 L 16.511 46.323 L 16.511 46.323 Q 17.863 47.441 17.863 49.658 Z  M 27.023 51.523 L 32.043 59.482 L 28.605 59.482 L 24.865 53.467 L 23.586 54.385 L 23.586 59.482 L 20.559 59.482 L 20.559 45.205 L 23.586 45.205 L 23.586 51.738 L 24.777 50.059 L 28.645 45.205 L 32.004 45.205 L 27.023 51.523 L 27.023 51.523 Z  M 39.26 53.984 L 39.26 51.465 L 44.924 51.465 L 44.924 58.867 L 44.924 58.867 Q 43.547 59.316 42.331 59.497 L 42.331 59.497 L 42.331 59.497 Q 41.115 59.678 39.846 59.678 L 39.846 59.678 L 39.846 59.678 Q 36.613 59.678 34.909 57.778 L 34.909 57.778 L 34.909 57.778 Q 33.205 55.879 33.205 52.324 L 33.205 52.324 L 33.205 52.324 Q 33.205 48.867 35.183 46.934 L 35.183 46.934 L 35.183 46.934 Q 37.16 45 40.666 45 L 40.666 45 L 40.666 45 Q 42.863 45 44.904 45.879 L 44.904 45.879 L 43.898 48.301 L 43.898 48.301 Q 42.336 47.52 40.646 47.52 L 40.646 47.52 L 40.646 47.52 Q 38.684 47.52 37.502 48.838 L 37.502 48.838 L 37.502 48.838 Q 36.32 50.156 36.32 52.383 L 36.32 52.383 L 36.32 52.383 Q 36.32 54.707 37.272 55.933 L 37.272 55.933 L 37.272 55.933 Q 38.225 57.158 40.041 57.158 L 40.041 57.158 L 40.041 57.158 Q 40.988 57.158 41.965 56.963 L 41.965 56.963 L 41.965 53.984 L 39.26 53.984 L 39.26 53.984 Z " fill="url(#_lgradient_2)"/></g></g><linearGradient id="_lgradient_3" x1="-0.07673622412710876" y1="0.141720692214245" x2="1" y2="0.5" gradientTransform="matrix(30,0,0,30,23.5,5.972)" gradientUnits="userSpaceOnUse"><stop offset="0%" stop-opacity="1" style="stop-color:rgb(100,73,0)"/><stop offset="100%" stop-opacity="1" style="stop-color:rgb(0,0,0)"/></linearGradient><path d=" M 24.496 8.202 L 25.63 9.336 L 25.63 9.336 L 25.63 9.336 L 25.63 32.609 L 25.63 32.609 L 24.496 33.742 L 24.496 8.202 Z  M 25.517 6.97 L 26.756 8.21 L 50.029 8.21 L 51.268 6.97 L 25.517 6.97 Z  M 52.156 6.082 L 52.158 6.08 L 52.163 6.085 C 52.942 6.358 53.5 7.101 53.5 7.972 L 53.5 33.972 C 53.5 34.844 52.942 35.586 52.163 35.859 L 52.158 35.864 L 52.156 35.862 C 51.951 35.933 51.73 35.972 51.5 35.972 L 25.5 35.972 C 24.396 35.972 23.5 35.076 23.5 33.972 L 23.5 7.972 C 23.5 6.868 24.396 5.972 25.5 5.972 L 25.5 5.972 L 51.5 5.972 C 51.73 5.972 51.951 6.011 52.156 6.082 Z  M 52.496 7.994 L 51.221 9.269 L 51.221 32.675 L 52.496 33.95 L 52.496 7.994 Z  M 51.265 34.97 L 50.096 33.801 L 26.689 33.801 L 25.52 34.97 L 51.265 34.97 Z  M 49.028 9.21 L 27.757 9.21 L 27.757 9.21 L 38.392 19.846 L 40.502 17.736 Q 40.548 17.504 40.548 17.246 L 40.548 17.246 L 40.548 17.246 Q 40.548 16.425 40.001 15.986 L 40.001 15.986 L 40.001 15.986 Q 39.454 15.546 38.429 15.546 L 38.429 15.546 L 38.429 15.546 Q 37.501 15.546 36.71 15.81 L 36.71 15.81 L 36.71 15.81 Q 35.919 16.074 35.167 16.445 L 35.167 16.445 L 34.346 14.726 L 34.346 14.726 Q 36.329 13.623 38.595 13.623 L 38.595 13.623 L 38.595 13.623 Q 40.509 13.623 41.632 14.56 L 41.632 14.56 L 41.632 14.56 Q 42.22 15.051 42.5 15.738 L 49.028 9.21 L 49.028 9.21 Z  M 50.216 10.274 L 50.216 31.67 L 39.868 21.322 Q 40.099 21.118 40.391 20.888 L 40.391 20.888 L 40.391 20.888 Q 41.456 20.058 41.89 19.541 L 41.89 19.541 L 41.89 19.541 Q 42.325 19.023 42.54 18.452 L 42.54 18.452 L 42.54 18.452 Q 42.657 18.14 42.71 17.78 L 50.216 10.274 L 50.216 10.274 Z  M 26.626 31.612 L 26.626 10.332 L 26.626 10.332 L 37.266 20.972 L 26.626 31.612 L 26.626 31.612 Z  M 36.554 26.884 L 36.554 26.884 L 36.554 26.884 Q 36.554 25.41 37.989 25.41 L 37.989 25.41 L 37.989 25.41 Q 38.692 25.41 39.063 25.796 L 39.063 25.796 L 39.063 25.796 Q 39.434 26.181 39.434 26.884 L 39.434 26.884 L 39.434 26.884 Q 39.434 27.578 39.058 27.983 L 39.058 27.983 L 39.058 27.983 Q 38.682 28.388 37.989 28.388 L 37.989 28.388 L 37.989 28.388 Q 37.296 28.388 36.925 27.993 L 36.925 27.993 L 36.925 27.993 Q 36.554 27.597 36.554 26.884 L 36.554 26.884 L 36.554 26.884 L 36.554 26.884 L 36.554 26.884 Z  M 27.69 32.8 L 49.095 32.8 L 49.095 32.8 L 38.939 22.644 Q 38.868 22.95 38.868 23.33 L 38.868 23.33 L 38.868 23.769 L 38.868 23.769 L 38.868 23.769 L 36.954 23.769 L 36.954 23.536 L 27.69 32.8 L 27.69 32.8 Z " fill-rule="evenodd" fill="url(#_lgradient_3)"/></g></svg>