<?xml version="1.0" encoding="UTF-8" standalone="no"?><!-- Generator: Gravit.io --><svg xmlns="http://www.w3.org/2000/svg" xmlns:xlink="http://www.w3.org/1999/xlink" style="isolation:isolate" viewBox="0 0 64 64" width="64pt" height="64pt"><defs><clipPath id="_clipPath_9JZUmkn9XlJgWoMDOi8V1kdTQemNjTkL"><rect width="64" height="64"/></clipPath></defs><g clip-path="url(#_clipPath_9JZUmkn9XlJgWoMDOi8V1kdTQemNjTkL)"><path d=" M 36 17 L 36 0 L 11 0 C 9.338 0 8 1.338 8 3 L 8 61 C 8 62.663 9.338 64 11 64 L 53 64 C 54.663 64 56 62.663 56 61 L 56 20 L 39 20 C 37.35 20 36 18.65 36 17 L 36 17 Z  M 56 15.238 L 56 16 L 40 16 L 40 0 L 40.763 0 C 41.563 0 42.325 0.313 42.888 0.875 L 55.125 13.125 C 55.688 13.688 56 14.45 56 15.238 L 56 15.238 Z  M 20.499 34.154 L 19.369 40.121 L 18.218 40.451 C 17.716 40.592 17.338 41.006 17.241 41.518 L 16.025 47.946 C 15.926 48.457 16.128 48.979 16.545 49.291 L 17.496 50.018 L 16.219 56.766 C 16.125 57.263 16.452 57.742 16.949 57.836 L 18.748 58.177 C 19.245 58.271 19.724 57.944 19.818 57.447 L 20.5 53.843 C 20.499 53.807 20.499 53.772 20.499 53.736 L 20.499 34.154 L 20.499 34.154 L 20.499 34.154 L 20.499 34.154 Z  M 38.563 37.649 C 38.563 37.062 39.038 36.587 39.625 36.587 C 40.212 36.587 40.688 37.062 40.688 37.649 L 40.688 52.524 C 40.688 53.111 40.212 53.586 39.625 53.586 C 39.038 53.586 38.563 53.111 38.563 52.524 L 38.563 37.649 L 38.563 37.649 L 38.563 37.649 L 38.563 37.649 L 38.563 37.649 L 38.563 37.649 Z  M 32.188 37.649 C 32.188 37.062 32.663 36.587 33.25 36.587 C 33.837 36.587 34.313 37.062 34.313 37.649 L 34.313 52.524 C 34.313 53.111 33.837 53.586 33.25 53.586 C 32.663 53.586 32.188 53.111 32.188 52.524 L 32.188 37.649 L 32.188 37.649 L 32.188 37.649 L 32.188 37.649 L 32.188 37.649 L 32.188 37.649 Z  M 25.813 37.649 C 25.813 37.062 26.289 36.587 26.875 36.587 C 27.462 36.587 27.938 37.062 27.938 37.649 L 27.938 52.524 C 27.938 53.111 27.462 53.586 26.875 53.586 C 26.289 53.586 25.813 53.111 25.813 52.524 L 25.813 37.649 L 25.813 37.649 L 25.813 37.649 L 25.813 37.649 L 25.813 37.649 L 25.813 37.649 Z  M 42.298 31.327 C 42.788 31.069 43.112 30.547 43.089 29.958 C 43.057 29.138 42.365 28.498 41.545 28.529 C 41.176 28.544 40.843 28.691 40.602 28.934 C 40.207 28.714 39.747 28.599 39.262 28.617 C 39.175 28.621 39.088 28.628 39.002 28.636 C 39.158 28.291 39.235 27.906 39.219 27.503 C 39.164 26.067 37.953 24.947 36.518 25.002 C 35.768 25.031 35.104 25.375 34.652 25.903 C 34.544 25.849 34.42 25.827 34.29 25.832 C 33.778 25.852 33.377 26.284 33.397 26.797 C 33.398 26.821 33.4 26.844 33.405 26.866 C 33.06 26.715 32.676 26.639 32.275 26.654 C 30.966 26.705 29.919 27.716 29.791 28.984 C 29.781 28.984 29.77 28.984 29.76 28.984 C 28.985 29.014 28.302 29.381 27.848 29.941 C 27.479 29.42 26.88 29.096 26.217 29.121 C 25.14 29.163 24.301 30.112 24.345 31.24 C 24.347 31.297 24.352 31.353 24.362 31.407 L 42.298 31.327 L 42.298 31.327 L 42.298 31.327 Z  M 20.502 54.756 C 20.558 56.467 21.963 57.836 23.688 57.836 L 42.813 57.836 C 44.573 57.836 46 56.409 46 54.649 L 46 32.337 L 20.5 32.337 L 20.5 35.067 L 20.502 54.756 L 20.502 54.756 L 20.502 54.756 L 20.502 54.756 L 20.502 54.756 Z " fill-rule="evenodd" fill="rgb(16,104,0)"/></g></svg>