<?xml version="1.0" encoding="UTF-8" standalone="no"?><!-- Generator: Gravit.io --><svg xmlns="http://www.w3.org/2000/svg" xmlns:xlink="http://www.w3.org/1999/xlink" style="isolation:isolate" viewBox="0 0 64 64" width="64pt" height="64pt"><defs><clipPath id="_clipPath_zroNtMwEC7LtDdHHTAP6S5ZcA9CNlBeJ"><rect width="64" height="64"/></clipPath></defs><g clip-path="url(#_clipPath_zroNtMwEC7LtDdHHTAP6S5ZcA9CNlBeJ)"><path d="M 9.001 0 L 54.989 0 C 59.957 0 63.99 4.033 63.99 9 L 63.99 55 C 63.99 59.967 59.957 64 54.989 64 L 9.001 64 C 4.033 64 0 59.967 0 55 L 0 9 C 0 4.033 4.033 0 9.001 0 Z" style="stroke:none;fill:#EBEBEB;stroke-miterlimit:10;"/><linearGradient id="_lgradient_1" x1="0.49999999999999983" y1="-2.7755575615628914e-16" x2="0.49999999999999944" y2="0.9999999999999998" gradientTransform="matrix(48,0,0,48.01,7.993,7.995)" gradientUnits="userSpaceOnUse"><stop offset="2.083333333333333%" stop-opacity="1" style="stop-color:rgb(255,251,0)"/><stop offset="97.91666666666666%" stop-opacity="1" style="stop-color:rgb(227,125,0)"/></linearGradient><path d=" M 31.988 56.005 L 33.73 56.005 C 35.192 56.005 36.368 54.859 36.368 53.434 L 36.368 35.592 Q 49.756 35.609 52.245 35.597 C 52.301 35.599 52.358 35.601 52.415 35.601 C 52.488 35.601 52.561 35.599 52.634 35.594 Q 52.712 35.593 52.757 35.592 Q 52.756 35.593 52.76 35.584 C 54.573 35.407 55.993 33.852 55.993 31.962 C 55.993 31.082 55.685 30.273 55.171 29.644 Q 55.184 29.612 33.84 8.75 C 33.327 8.25 32.658 7.998 31.988 7.995 L 31.988 7.995 C 31.318 7.998 30.649 8.25 30.136 8.75 Q 8.802 29.612 8.814 29.644 C 8.301 30.273 7.993 31.082 7.993 31.962 C 7.993 33.852 9.412 35.407 11.225 35.584 Q 11.228 35.593 11.228 35.592 Q 11.272 35.593 11.351 35.594 C 11.423 35.599 11.496 35.601 11.57 35.601 C 11.627 35.601 11.683 35.599 11.74 35.597 Q 14.228 35.609 27.609 35.592 L 27.609 53.434 C 27.609 54.859 28.785 56.005 30.246 56.005 L 31.988 56.005 L 31.988 56.005 Z " fill="url(#_lgradient_1)"/></g></svg>